<?xml version="1.0" encoding="iso-8859-1"?>
<!-- Uploaded to: SVG Repo, www.svgrepo.com, Generator: SVG Repo Mixer Tools -->
<svg fill="#000000" height="800px" width="800px" version="1.1" id="Layer_1" xmlns="http://www.w3.org/2000/svg" xmlns:xlink="http://www.w3.org/1999/xlink" 
	 viewBox="0 0 512 512" xml:space="preserve">
<g>
	<g>
		<path d="M475.032,133.06l3.478-3.478c13.656-13.655,21.176-31.811,21.176-51.123c0-19.313-7.52-37.468-21.176-51.124
			c-13.655-13.656-31.811-21.177-51.123-21.177c-19.313,0-37.468,7.52-51.123,21.177L177.598,225.999l7.779,7.779l-113.93,113.93
			l5.381,5.381l-54.538,32.163L0,505.842l120.588-22.291l32.163-54.538l5.385,5.385l113.93-113.93l7.779,7.779l171.597-171.597
			l13.379,13.379L305.02,329.834l23.588,23.588L512,170.03L475.032,133.06z M99.576,453.51l-29.016,5.364l23.74-23.74
			l-23.588-23.588l-23.745,23.746l5.365-29.026l48.858-28.816l27.2,27.2L99.576,453.51z M158.137,387.221l-39.512-39.512
			l90.341-90.341l39.512,39.512L158.137,387.221z M454.922,105.994L279.846,281.069l-55.07-55.07L399.853,50.923
			c7.355-7.355,17.133-11.406,27.535-11.406c10.401,0,20.18,4.051,27.535,11.406c7.355,7.355,11.406,17.134,11.406,27.536
			S462.277,98.639,454.922,105.994z"/>
	</g>
</g>
</svg>